<svg xmlns="http://www.w3.org/2000/svg" id="Layer_1" viewBox="0 0 256 256" width="256" height="256"><style>.st0{fill:#c95459}</style><path d="M128 62.2c-36.3 0-65.8 29.5-65.8 65.8s29.5 65.8 65.8 65.8 65.8-29.5 65.8-65.8-29.5-65.8-65.8-65.8zm30.2 96c-7.8 7.8-18.4 12.5-30.2 12.5-23.6 0-42.7-19.1-42.7-42.7s19.1-42.7 42.7-42.7 42.7 19.1 42.7 42.7c0 11.8-4.8 22.4-12.5 30.2z" class="st0"/><ellipse cx="196.4" cy="59.6" class="st0" rx="15.4" ry="15.4" transform="rotate(-45.001 196.382 59.62)"/><path d="M255.3 75.3c-.3-10.6-2.3-21.3-6-31.2-6.5-17.2-20.1-30.9-37.4-37.4C202 3 191.4.8 180.7.7 167.1.1 162.8 0 128 0S88.9.1 75.3.7C64.6 1 54 3 44.1 6.8 26.9 13.2 13.2 26.9 6.8 44.1 3 54 .9 64.6.7 75.3.1 88.9 0 93.2 0 128s.1 39.1.7 52.7C1 191.4 3 202 6.8 211.9c6.5 17.2 20.1 30.9 37.4 37.4 9.9 3.7 20.5 5.9 31.2 6 13.6.6 18 .7 52.7.7s39.1-.1 52.7-.7c10.6-.3 21.3-2.3 31.2-6 17.2-6.5 30.9-20.1 37.4-37.4 3.7-9.9 5.9-20.5 6-31.2.6-13.6.7-18 .7-52.7s-.2-39.1-.8-52.7zm-23.1 104.4c-.7 13.5-2.6 19.3-4.3 23.8-4.5 11.1-13.2 19.8-24.3 24.3-4.6 1.7-11.3 3.7-23.8 4.3-12.5.6-17.5.9-51.7.9s-38.2-.1-51.7-.9-19.3-2.6-23.8-4.3c-11.1-4.5-19.8-13.2-24.3-24.3-1.7-4.6-3.7-11.3-4.3-23.8-.7-12.5-1-17.5-1-51.7s.1-38.2.9-51.7 2.6-19.3 4.3-23.8c4.5-11.1 13.2-19.8 24.3-24.3 4.6-1.7 11.3-3.7 23.8-4.3S93.8 23 128 23s38.2.1 51.7.9c13.5.7 19.3 2.6 23.8 4.3 11.1 4.5 19.8 13.2 24.3 24.3 1.7 4.6 3.7 11.3 4.3 23.8.6 12.5.9 17.5.9 51.7s-.1 38.2-.8 51.7z" class="st0"/><path d="M128 62.2c-36.3 0-65.8 29.5-65.8 65.8s29.5 65.8 65.8 65.8 65.8-29.5 65.8-65.8-29.5-65.8-65.8-65.8zm30.2 96c-7.8 7.8-18.4 12.5-30.2 12.5-23.6 0-42.7-19.1-42.7-42.7s19.1-42.7 42.7-42.7 42.7 19.1 42.7 42.7c0 11.8-4.8 22.4-12.5 30.2z" class="st0"/><ellipse cx="196.4" cy="59.6" class="st0" rx="15.4" ry="15.4" transform="rotate(-45.001 196.382 59.62)"/><path d="M128 62.2c-36.3 0-65.8 29.5-65.8 65.8s29.5 65.8 65.8 65.8 65.8-29.5 65.8-65.8-29.5-65.8-65.8-65.8zm30.2 96c-7.8 7.8-18.4 12.5-30.2 12.5-23.6 0-42.7-19.1-42.7-42.7s19.1-42.7 42.7-42.7 42.7 19.1 42.7 42.7c0 11.8-4.8 22.4-12.5 30.2z" class="st0"/><ellipse cx="196.4" cy="59.6" class="st0" rx="15.4" ry="15.4" transform="rotate(-45.001 196.382 59.62)"/></svg>