<svg xmlns="http://www.w3.org/2000/svg" id="Layer_1" viewBox="0 0 256 256" width="256" height="256"><style>.st0{fill:#c95459}</style><path d="M253.3 74.9s-2.7-17.6-10.3-25.2c-9.7-10.2-20.7-10.7-25.6-11.1-35.8-2.5-89.1-3-89.1-3s-53.5.5-89.1 3c-5 .6-15.8.8-25.4 11C6.2 57.2 3.6 74.7 3.6 74.7 1.8 88.3 1.1 102.2.9 116v19.3c.2 13.8.9 27.4 2.7 41.1 0 0 2.7 17.6 10.3 25.2 9.7 10.2 22.4 9.7 28.1 10.8 20.5 2 86.6 2.5 86.6 2.5s53.5 0 89.1-2.5c5-.6 15.8-.6 25.4-10.8 7.5-7.7 10.3-25.2 10.3-25.2 1.7-13.6 2.5-27.3 2.7-41.1V116c-.3-13.8-1-27.5-2.8-41.1zm-151.1 83.7V87.3l68.7 35.7-68.7 35.6z" class="st0"/></svg>