<svg xmlns="http://www.w3.org/2000/svg" id="Layer_1" width="170" height="50" viewBox="0 0 170 50"><style>.st0{fill:#c95459}</style><path d="M10.9 32.4h9.8v-3.3h-5.9V17.6H11l-.1 14.8zm11.7 0h10.8v-3.2h-7v-2.7h6.9v-3.2h-6.9v-2.4h7v-3.2H22.6v14.7zm16.4 0h3.8V20.9H47v-3.3H34.9v3.3H39v11.5zm15.5 0h3.8V17.6h-3.8v14.8zm9.7 0H68V20.9h4.2v-3.3H60.1v3.3h4.2v11.5zm15.6 0H86c4.6 0 7.9-2.8 7.9-7.4s-3.3-7.4-7.9-7.4h-6.2v14.8zm3.7-3.3v-8.2H86c2.1-.1 3.8 1.4 4.1 3.4v.7c.1 2.2-1.6 3.9-3.8 4.1h-2.8zM95.1 25c-.1 4.1 3.1 7.5 7.2 7.6h.7c4.1.3 7.6-2.9 7.8-7V25c.2-4-3-7.4-7-7.6h-.8c-4.2-.3-7.7 2.9-7.9 7.1v.5zm12 0c.2 2.2-1.5 4.1-3.7 4.3h-.3c-2.2.1-4-1.7-4.1-3.8V25c-.1-2.2 1.6-4.1 3.8-4.3h.3c2.2 0 4 1.7 4 4v.3zm5.7 1.4c0 3.7 2.2 6.2 7 6.2s6.8-2.6 6.8-6.2v-8.8h-3.8v8.7c.2 1.5-.9 2.8-2.4 3h-.5c-1.5.2-2.8-.9-3-2.4v-.2c-.1-.2-.1-.3 0-.5v-8.7h-4l-.1 8.9zm15.7-1.4c0 4.7 3.7 7.6 8 7.6 2.5.1 4.9-1 6.5-2.9v-5.8h-7.2v3.2h3.4v1.3c-.9.5-1.8.9-2.8.9-2.3-.1-4.1-1.8-4.2-4.1V25c-.1-2.3 1.7-4.2 4-4.3h.2c1.3 0 2.4.6 3.1 1.7l3.2-1.6c-1.3-2.3-3.8-3.6-6.4-3.4-4.1 0-7.8 2.9-7.8 7.6zm26.8 7.4h3.8V17.6h-3.8v5.5h-6.1v-5.5h-3.8v14.8h3.8v-6h6.1v6z" class="st0"/></svg>