<svg xmlns="http://www.w3.org/2000/svg" id="Layer_1" viewBox="0 0 100 100" width="100" height="100"><style>.st0{fill:#c95459}</style><path d="M91.7 69.3l-9.3-5.4 7.2-1.9c2.2-.6 3.5-2.9 2.9-5.1-.6-2.2-2.9-3.5-5.1-2.9L72 58l-4.6-2.6V44.6l4.5-2.6 15.7 4.2c.3.1.7.1 1 0v.2c2.3.3 4.4-1.3 4.7-3.6.3-2.3-1.3-4.4-3.6-4.7l-7.5-2 9.4-5.4c2-1.2 2.7-3.7 1.5-5.7-1.2-2-3.7-2.7-5.7-1.5l-9.2 5.3 1.9-7.2c.5-2.1-.7-4.3-2.8-4.9-2.2-.7-4.5.6-5.2 2.8L68 34.8l-4.7 2.7-9.2-5.3v-5.4l11.3-11.3c1.6-1.6 1.6-4.3 0-5.9-1.6-1.6-4.3-1.6-5.9 0L54.1 15V4.2C54.2 1.9 52.3 0 50 0s-4.2 1.9-4.2 4.2V15l-5.4-5.4c-1.6-1.6-4.3-1.6-5.9 0-1.6 1.6-1.6 4.3 0 5.9l11.3 11.3v5.4l-9.2 5.3-4.7-2.7-4.1-15.4c-.6-2.1-2.8-3.3-4.9-2.8-2.2.5-3.6 2.8-3.1 5l2 7.3-9.2-5.4c-2-1.2-4.6-.5-5.7 1.5-1.2 2-.5 4.6 1.5 5.7l9.1 5.3-7.2 1.9c-2.3.3-3.9 2.4-3.6 4.7.3 2.3 2.4 3.9 4.7 3.6.4 0 .8 0 1.2-.2L28 42l4.5 2.6v10.7L28 58l-15.5-4c-.1 0-.2-.1-.3-.1-2.2-.5-4.5.9-5 3.2-.6 2.2.7 4.5 3 5.1l7.2 1.9-9.1 5.2c-1.3.7-2.1 2.1-2.1 3.5 0 2.3 1.8 4.2 4.1 4.3.8 0 1.5-.2 2.2-.5l9.3-5.4-2 7.5c-.6 2.2.7 4.5 3 5.1.4.1.7.1 1.1 0 1.9 0 3.6-1.3 4-3.2L32 65.4l4.8-2.8 9.2 5.3v5.4L34.5 84.5c-1.6 1.6-1.6 4.3 0 5.9 1.6 1.6 4.3 1.6 5.9 0l5.4-5.4v10.8c0 2.3 1.9 4.2 4.2 4.2 2.3 0 4.2-1.9 4.2-4.2V85.1l5.4 5.4c.8.8 1.9 1.2 3 1.2s2.2-.4 3-1.2c1.6-1.6 1.6-4.3 0-5.9L54.2 73.3v-5.4l9.2-5.3 4.5 2.6L72 80.7c.5 1.9 2.2 3.1 4.2 3.1.3 0 .6-.1.9-.2 2.2-.6 3.5-2.9 3-5.1l-2-7.5 9.6 5.5c.6.3 1.3.5 2 .5 1.5 0 2.9-.8 3.6-2.1 1.1-1.9.4-4.5-1.6-5.6zM40.8 44.7l9.2-5.3 9.2 5.3v10.7L50 60.6l-9.2-5.3V44.7zm48.9 32.4h-.1.1z" class="st0"/></svg>